<!DOCTYPE svg PUBLIC "-//W3C//DTD SVG 20010904//EN" "http://www.w3.org/TR/2001/REC-SVG-20010904/DTD/svg10.dtd">
<svg version="1.0" xmlns="http://www.w3.org/2000/svg" width="562px" height="557px" viewBox="0 0 5620 5570" preserveAspectRatio="xMidYMid meet">
<g id="layer101" fill="#fdfdfd" stroke="none">
 <path d="M2620 5549 c-241 -6 -289 -13 -490 -64 -157 -40 -215 -60 -215 -75 0 -7 30 -32 68 -55 115 -70 181 -136 224 -222 37 -76 38 -79 41 -209 6 -228 -29 -302 -210 -438 -62 -47 -125 -100 -139 -118 -60 -77 -129 -248 -129 -320 0 -24 -7 -67 -15 -94 -11 -39 -22 -54 -47 -67 -18 -9 -82 -48 -143 -87 -130 -83 -177 -102 -309 -124 -54 -9 -117 -26 -140 -38 -47 -24 -262 -179 -339 -245 -62 -52 -111 -86 -272 -183 -71 -43 -153 -104 -200 -148 -87 -80 -128 -105 -190 -116 -22 -4 -50 -14 -63 -22 -21 -14 -23 -20 -20 -112 3 -91 4 -97 23 -94 11 2 27 11 35 21 27 32 154 127 220 165 36 21 79 51 95 66 19 18 53 34 94 45 35 9 103 36 150 59 47 23 102 48 121 56 19 7 101 44 182 82 137 65 154 71 231 75 68 5 100 1 184 -21 56 -14 117 -26 136 -26 69 0 264 124 311 198 33 53 79 90 122 98 60 11 159 -26 231 -87 32 -27 234 -415 247 -474 5 -24 0 -39 -24 -72 -43 -59 -119 -87 -213 -80 -81 7 -136 -7 -210 -54 -115 -74 -216 -196 -267 -325 -13 -33 -42 -83 -64 -113 -68 -89 -73 -100 -101 -215 -31 -127 -69 -213 -118 -271 -63 -74 -122 -170 -148 -240 -29 -75 -70 -217 -74 -250 -1 -17 -9 -20 -46 -20 -106 2 -303 42 -678 140 -52 13 -98 22 -103 19 -19 -12 152 -281 276 -434 89 -111 287 -310 400 -403 393 -326 849 -529 1366 -608 193 -30 571 -32 755 -5 674 99 1228 389 1683 880 175 189 413 532 383 551 -6 3 -41 -8 -79 -24 -47 -21 -110 -37 -203 -51 -74 -11 -172 -27 -219 -35 -47 -8 -130 -22 -185 -30 -55 -9 -162 -30 -238 -47 -124 -28 -147 -30 -215 -22 l-77 9 -21 65 c-12 36 -27 101 -34 145 -6 44 -22 118 -35 165 -43 152 -57 223 -65 330 -6 79 -16 131 -43 210 -20 58 -41 125 -47 150 -12 46 -47 102 -111 180 -20 25 -69 104 -109 175 -39 72 -97 163 -128 204 -32 40 -78 101 -104 134 -33 44 -65 107 -110 217 l-63 155 0 255 0 255 37 60 c43 70 80 108 164 167 34 24 165 144 291 268 259 254 280 283 332 459 17 58 42 123 55 145 32 53 90 109 144 136 24 13 41 28 39 34 -6 20 -318 169 -457 219 -153 55 -357 108 -505 131 -120 19 -307 23 -625 15z m-238 -3179 c21 -6 40 -15 43 -21 4 -5 -26 -66 -65 -135 -99 -173 -114 -210 -144 -364 -46 -232 -149 -491 -219 -548 -8 -7 -18 -24 -21 -37 -12 -48 -97 -56 -278 -26 -64 11 -163 25 -220 31 -95 10 -148 28 -148 49 0 4 13 28 30 52 16 24 30 50 30 57 0 6 4 12 9 12 5 0 19 16 31 36 13 19 40 47 61 61 36 24 117 123 171 208 13 22 42 85 63 140 46 119 93 220 123 262 12 17 22 35 23 40 3 32 116 86 269 127 30 8 87 26 125 40 82 30 71 28 117 16z m855 -351 c129 -62 294 -295 379 -534 21 -61 28 -98 28 -157 0 -43 -2 -80 -5 -82 -12 -12 -200 -46 -253 -46 -92 0 -177 20 -186 45 -5 11 -17 67 -28 125 -55 285 -53 279 -105 358 -27 42 -53 87 -59 101 -5 14 -15 33 -22 41 -7 8 -16 27 -20 42 -5 21 0 32 31 59 21 18 57 45 82 60 51 33 66 32 158 -12z m-415 -419 c87 -43 163 -105 189 -154 9 -17 22 -69 27 -116 6 -47 14 -93 17 -102 7 -17 -11 -18 -278 -18 -278 0 -317 3 -317 21 0 5 38 46 84 91 93 92 104 110 136 218 12 41 23 81 26 88 6 20 30 14 116 -28z"/>
 <path d="M5584 3189 c-3 -6 -1 -16 5 -22 8 -8 11 -5 11 11 0 24 -5 28 -16 11z"/>
 <path d="M5593 3114 c-3 -8 -1 -20 6 -27 8 -8 11 -4 11 16 0 30 -7 35 -17 11z"/>
 <path d="M5613 2990 c0 -25 2 -35 4 -22 2 12 2 32 0 45 -2 12 -4 2 -4 -23z"/>
 <path d="M5613 2590 c0 -30 2 -43 4 -27 2 15 2 39 0 55 -2 15 -4 2 -4 -28z"/>
 <path d="M5597 2503 c-11 -10 -8 -51 3 -58 6 -4 10 8 10 29 0 37 -2 41 -13 29z"/>
 <path d="M5587 2423 c-14 -22 -20 -100 -8 -107 16 -10 23 14 19 70 -2 29 -6 44 -11 37z"/>
 <path d="M5564 2286 c-4 -9 -4 -20 0 -23 3 -3 1 -12 -5 -19 -6 -8 -9 -20 -6 -29 4 -8 2 -17 -4 -21 -6 -3 -8 -12 -5 -19 2 -7 0 -17 -5 -22 -5 -5 -11 -24 -13 -43 -3 -19 -6 -37 -7 -40 -1 -3 -3 -9 -4 -15 -1 -5 -7 -23 -13 -38 -7 -15 -11 -31 -11 -35 1 -4 0 -10 -1 -14 -1 -5 -4 -12 -5 -18 -1 -5 -4 -12 -5 -15 -1 -3 -4 -9 -5 -15 -1 -5 -4 -12 -5 -15 -1 -3 -4 -9 -5 -15 -1 -5 -4 -12 -5 -15 -1 -3 -3 -8 -5 -12 -1 -5 -12 -30 -24 -57 -12 -27 -23 -56 -24 -65 -2 -9 -14 -36 -27 -61 -12 -25 -22 -45 -20 -45 2 0 -7 -19 -18 -42 -13 -24 -18 -44 -12 -48 8 -5 54 69 53 85 -1 3 7 21 17 40 10 19 18 38 19 42 1 4 11 29 22 54 11 26 21 56 24 68 2 12 4 22 6 24 1 1 3 7 4 12 1 6 4 12 5 15 1 3 4 10 5 15 1 6 4 12 5 15 1 3 4 10 5 15 1 6 4 12 5 15 1 3 3 8 5 13 1 4 7 20 14 36 6 16 9 31 6 34 -2 3 0 11 5 18 6 6 10 16 9 20 -1 5 3 22 10 38 6 16 10 35 7 42 -3 8 -1 16 5 20 6 3 8 12 5 20 -3 7 -1 16 5 20 5 3 9 13 8 22 -1 10 1 25 6 35 4 11 3 23 -3 29 -8 8 -13 7 -18 -6z"/>
 <path d="M5250 1421 c-6 -12 -6 -22 -1 -26 6 -3 15 3 21 14 6 12 6 22 1 26 -6 3 -15 -3 -21 -14z"/>
 </g>
<g id="layer102" fill="#020202" stroke="none">
 <path d="M2434 5554 c-383 -38 -825 -200 -1176 -433 -176 -116 -287 -208 -454 -375 -390 -392 -639 -845 -758 -1384 -60 -267 -60 -887 0 -1154 119 -539 368 -992 758 -1384 335 -335 677 -548 1115 -694 288 -96 523 -130 891 -130 368 0 603 34 891 130 435 145 780 359 1110 689 202 203 314 349 461 601 153 262 298 691 322 950 31 331 33 463 12 730 -17 206 -48 355 -116 562 -137 413 -355 764 -674 1084 -335 335 -677 548 -1115 694 -193 64 -346 97 -532 115 -186 18 -551 17 -735 -1z m812 -39 c270 -45 533 -129 784 -252 152 -75 154 -76 131 -92 -51 -35 -134 -118 -157 -156 -13 -23 -38 -88 -55 -146 -51 -174 -74 -206 -322 -449 -120 -118 -247 -234 -281 -258 -84 -59 -141 -116 -184 -187 l-37 -60 0 -255 0 -255 63 -155 c45 -110 77 -173 110 -217 26 -33 72 -94 104 -134 31 -41 89 -132 128 -204 40 -71 89 -150 109 -175 64 -78 99 -134 111 -180 6 -25 27 -92 47 -150 26 -78 37 -131 43 -205 8 -105 29 -217 61 -321 11 -33 26 -103 35 -155 16 -103 39 -189 60 -231 13 -24 20 -27 96 -33 72 -6 101 -3 218 24 74 16 180 37 235 46 55 8 138 22 185 30 47 8 146 24 220 35 86 13 155 30 192 47 32 14 61 24 63 21 3 -3 -23 -49 -57 -104 -396 -638 -1036 -1087 -1768 -1243 -210 -44 -325 -55 -580 -55 -273 1 -428 18 -655 75 -665 166 -1234 562 -1617 1124 -41 61 -90 136 -108 169 l-33 58 44 -7 c24 -4 69 -15 99 -25 145 -47 447 -110 611 -127 59 -6 68 -1 74 40 4 37 46 178 74 252 26 70 85 166 148 240 49 58 87 144 118 271 28 115 33 126 101 215 22 30 51 80 64 112 50 126 132 230 237 298 83 54 136 69 220 62 98 -8 170 21 224 89 34 43 39 56 33 82 -4 17 -55 128 -115 246 -112 224 -125 241 -219 296 -52 30 -124 47 -165 40 -41 -8 -117 -72 -141 -118 -16 -32 -134 -119 -209 -154 -64 -30 -93 -30 -218 2 -84 22 -116 26 -184 21 -77 -4 -94 -10 -231 -75 -81 -38 -163 -75 -182 -82 -19 -8 -74 -33 -121 -56 -47 -23 -115 -50 -150 -59 -41 -11 -75 -27 -94 -45 -16 -15 -59 -45 -95 -66 -36 -20 -106 -70 -157 -110 -51 -41 -95 -74 -98 -74 -3 0 -5 38 -5 85 l0 84 37 10 c21 6 44 11 51 11 29 0 91 42 167 112 47 44 129 105 200 148 161 97 210 131 272 183 77 66 292 221 339 245 23 12 86 29 140 38 125 20 184 44 311 124 57 36 122 76 145 90 34 21 46 36 60 75 9 28 17 72 18 99 0 77 70 252 128 321 14 17 72 66 131 110 186 141 225 221 219 448 -3 131 -4 134 -41 209 -43 88 -128 174 -236 238 l-64 38 71 21 c247 74 420 102 667 110 237 7 445 -1 581 -24z"/>
 <path d="M2265 2374 c-38 -14 -95 -32 -125 -40 -122 -33 -205 -67 -247 -102 -23 -20 -43 -40 -43 -45 0 -5 -10 -23 -22 -40 -30 -42 -77 -143 -123 -262 -53 -139 -149 -284 -218 -331 -35 -23 -101 -99 -127 -145 -8 -15 -23 -42 -33 -59 -18 -31 -18 -33 0 -52 28 -31 42 -36 152 -48 56 -6 155 -20 219 -31 191 -31 263 -22 294 40 9 18 25 43 35 55 78 88 164 310 209 536 30 154 45 191 144 365 70 122 72 127 55 145 -15 16 -73 40 -95 40 -3 0 -36 -12 -75 -26z"/>
 <path d="M3077 2050 c-26 -16 -67 -48 -92 -71 -38 -35 -44 -46 -39 -68 4 -14 13 -33 20 -41 7 -8 17 -27 22 -41 6 -14 32 -59 59 -101 40 -61 52 -91 66 -159 9 -46 27 -139 41 -205 13 -67 28 -130 34 -140 12 -22 102 -42 192 -43 77 -1 249 34 269 54 26 26 19 158 -13 250 -86 243 -263 489 -399 554 -93 44 -107 45 -160 11z"/>
 <path d="M2698 1643 c-8 -10 -20 -39 -27 -66 -29 -121 -50 -157 -142 -247 -49 -47 -89 -94 -89 -103 0 -10 12 -22 26 -27 14 -6 149 -10 308 -10 236 0 286 2 296 15 6 8 9 19 6 24 -4 5 -11 47 -16 93 -14 110 -30 145 -101 207 -55 48 -201 131 -232 131 -8 0 -21 -8 -29 -17z"/>
 </g>

</svg>